# xmcd
#
# Track frame offsets:
#	150
#	17216
#	36275
#	53377
#	76594
#	92651
#	109472
#	128932
#	143470
#	158337
#	173185
#
# Disc length: 2541 seconds
# Revision: 0
# Processed by: cddbd v1.5.2PL0 Copyright (c) Steve Scherf et al.
# Submitted via: dBpowerAMP V12.0
#
DISCID=7b09eb0b
DTITLE=Eliana Cargnelutti - Electric Woman
DYEAR=1900
DGENRE=
TTITLE0=Why Do I Sing The Blues
TTITLE1=Just For Me
TTITLE2=Street Corner Talking
TTITLE3=Soulshine
TTITLE4=Show Me
TTITLE5=Everybody Needs Love
TTITLE6=I'm A Woman
TTITLE7=There's Gonna Be Some Rockin'
TTITLE8=Freedom
TTITLE9=I Saw Your Eyes
TTITLE10=Eliana's Boogie
EXTD=
EXTT0=
EXTT1=
EXTT2=
EXTT3=
EXTT4=
EXTT5=
EXTT6=
EXTT7=
EXTT8=
EXTT9=
EXTT10=
PLAYORDER=
